<?xml version="1.0" encoding="utf-8"?>
<!-- Generator: Adobe Illustrator 19.2.1, SVG Export Plug-In . SVG Version: 6.00 Build 0)  -->
<svg version="1.1" id="layer" xmlns="http://www.w3.org/2000/svg" xmlns:xlink="http://www.w3.org/1999/xlink" x="0px" y="0px"
	 viewBox="0 0 652 652" style="enable-background:new 0 0 652 652;" xml:space="preserve">
<style type="text/css">
	.st0{fill:#F2782A;}
	.st1{fill:#57585A;}
</style>
<g>
	<path class="st0" d="M83.4,281h38.4c19.3,0,27.2-6.3,27.2-6.3H83.3c-45.2,0-64.6,31-59.6,57.7c3.5,19,20.9,35.1,46.3,36.7
		c10.3,0.6,20.2-2.4,20.2-2.4c-30.8,0.6-52.5-15.5-54.9-37.6C32.3,302.1,52,281,83.4,281"/>
	<path class="st0" d="M71.9,291.9c31.7-2.8,47.6,18.1,45.3,39c-1.7,15-16.4,27-32.5,26.2c-6.7-0.3-12.6-3.1-12.6-3.1
		c18.2,0.7,32.1-11.8,33.8-26.9C108.2,306.2,90.9,294.1,71.9,291.9"/>
	<path class="st0" d="M82.4,302.9C61,298.5,49.6,313.1,51.1,327c1,10,10.7,17.9,21.5,17.5c4.4-0.2,8.4-2,8.4-2
		c-12.1,0.3-19.1-7.2-20.1-17.2C59.4,311.5,69.4,304.2,82.4,302.9"/>
	<path class="st1" d="M387.4,299.4c-2.3-0.7-4.8-1-7-1c-5.2,0-10.5,3.7-12.9,8.9h-0.2v-7.7h-8.6v49.6h9.1v-22.6
		c0-12.5,5.4-20.2,13.5-20.2c0.3,0,1.3,0.1,1.5,0.1L387.4,299.4z"/>
	<path class="st1" d="M171.9,307.9c-3.5-1.5-7-2.1-9.9-2.1c-10.2,0-16,9.1-16,18.6c0,8.9,4.8,18.6,16.5,18.6c3.1,0,7-1,9.8-2.8
		l0.7,8.2c-3.8,1.8-8.2,2-11.5,2c-15,0-25.3-11.8-25.3-26c0-15.1,10.1-26,25.3-26c3.7,0,8.5,0.9,11.1,1.9L171.9,307.9z"/>
	<path class="st1" d="M274.5,339.4c3.6,2.3,8.8,3.5,11.4,3.5c4.2,0,9.3-1.8,9.3-7.1c0-9-21.5-8.3-21.5-22.2
		c0-10.3,7.7-15.3,17.5-15.3c4.3,0,7.8,0.9,11.4,1.9l-0.8,8c-2-1.3-7.5-2.5-9.6-2.5c-4.7,0-8.8,1.9-8.8,6c0,10.1,21.5,7.2,21.5,23.1
		c0,10.6-8.5,15.5-17.3,15.5c-4.7,0-9.4-0.5-13.6-2.7L274.5,339.4z"/>
	<path class="st1" d="M210.2,329.9c0,7.4-4.8,13-13.8,13c-4.2,0-9.2-2.8-9.2-8.1c0-8.8,12.3-9.5,17.2-9.5c1.9,0,3.9,0.2,5.8,0.2
		V329.9z M219.7,349.1c-0.2-1.5-0.4-4.1-0.4-9.7v-20.5c0-13.5-5.7-20.5-19.9-20.5c-6.3,0-11.8,1.9-16.3,4.7l0.5,7.8
		c3.7-3.1,9.2-5.1,14.4-5.1c9.2,0,12.3,4.4,12.3,12.9c-3.6-0.2-6.1-0.2-9.7-0.2c-9.4,0-23.1,3.9-23.1,16.3
		c0,10.8,7.5,15.5,18.2,15.5c8.4,0,13.2-4.6,15.4-7.6h0.2v6.4C211.2,349.1,219.7,349.1,219.7,349.1z"/>
	<path class="st1" d="M510.2,299.5h8.9v7.9h0.2c2.7-5.6,9.3-9.1,16.3-9.1c12.8,0,18.6,8,18.6,21.3v29.5h-9.1v-25.7
		c0-11.6-2.5-17.2-10.5-17.7c-10.4,0-15.1,8.4-15.1,20.4v23h-9.1L510.2,299.5L510.2,299.5z"/>
	<path class="st1" d="M616.5,310.2c-3,0-5.2-2.4-5.2-5.5c0-3.1,2.2-5.5,5.2-5.5c3,0,5.2,2.4,5.2,5.5
		C621.7,307.9,619.4,310.2,616.5,310.2 M616.5,298.4c-3.5,0-6.4,2.9-6.4,6.4c0,3.5,2.9,6.4,6.4,6.4c3.5,0,6.4-2.9,6.4-6.4
		C622.9,301.2,620,298.4,616.5,298.4"/>
	<path class="st1" d="M615.2,304.2V302h1.5c0.8,0,1.5,0.2,1.5,1.1c0,1-0.6,1.2-1.5,1.2C616.7,304.2,615.2,304.2,615.2,304.2z
		 M619.5,303.1c0-1.4-0.9-2.1-2.6-2.1H614v7.5h1.2v-3.3h1l2.1,3.3h1.3l-2.1-3.3C618.7,305.2,619.5,304.3,619.5,303.1"/>
	<path class="st1" d="M342,329.9c0,7.4-4.8,13-13.8,13c-4.2,0-9.3-2.8-9.3-8.1c0-8.8,12.3-9.5,17.2-9.5c1.9,0,3.9,0.2,5.8,0.2V329.9
		z M351.1,318.9c0-13.5-5.7-20.5-20-20.5c-6.3,0-11.8,1.9-16.3,4.7l0.5,7.8c3.7-3.1,9.2-5.1,14.4-5.1c9.1,0,12.3,4.4,12.3,12.9
		c-3.6-0.2-6.1-0.2-9.7-0.2c-9.4,0-23.1,3.9-23.1,16.3c0,10.8,7.5,15.5,18.2,15.5c8.4,0,13.2-4.6,15.4-7.6h0.2v6.4h8.6
		c-0.2-1.5-0.4-4.1-0.4-9.7L351.1,318.9L351.1,318.9z"/>
	<path class="st1" d="M480.1,342.9c-10.8,0-15.6-9.7-15.6-18.6c0-9.4,5.7-18.6,15.6-18.6c9.7,0,15.5,9.1,15.5,18.6
		C495.6,333.2,490.8,342.9,480.1,342.9 M480.1,298.4c-15.2,0-25.3,10.9-25.3,26c0,14.2,10.3,26,25.3,26c14.9,0,25.2-11.8,25.2-26
		C505.3,309.3,495.2,298.4,480.1,298.4"/>
	<path class="st1" d="M569.2,319.6c0.7-6.4,4.4-13.8,13.3-13.8c7.9,0,12.4,6.2,12.4,13.8H569.2z M582.8,298.4
		c-14,0-23.3,10.4-23.3,25.1c0,16.2,8.1,26.9,25.7,26.9c8.2,0,12.2-1.9,15.7-3.2V338c-2.2,1.8-9.2,5-15.3,5
		c-8.7,0-16.4-6.7-16.4-16.5h35.4C604.6,310.4,599.3,298.4,582.8,298.4"/>
	<path class="st1" d="M247.7,305.8c7.9,0,12.3,6.2,12.3,13.8h-25.7C235,313.1,238.7,305.8,247.7,305.8 M234.3,326.4h35.4
		c0-16-5.4-28-21.9-28c-14,0-23.3,10.4-23.3,25.1c0,16.2,8.1,26.9,25.7,26.9c8.2,0,12.2-1.9,15.7-3.2V338c-2.2,1.8-9.2,5-15.3,5
		C242,342.9,234.3,336.2,234.3,326.4"/>
	<path class="st1" d="M448.5,342.9c-4.2,0-7.7-3.1-7.7-8.9V307h13.1v-7.4l-13.1,0v-7.8l-9.1,1.7l0,6.1h-26
		c-1.8,0.1-17.1-1.4-17.1,14.1c0,13.9,21.5,13.1,21.5,22.2c0,5.3-5.2,7.1-9.3,7.1c-2.6,0-7.8-1.2-11.4-3.5l-0.5,8.2
		c4.2,2.2,8.9,2.7,13.6,2.7c8.8,0,17.3-4.9,17.3-15.5c0-15.9-21.9-13.1-21.5-23.3c0.2-4.4,4.9-4.6,8.4-4.6h25l0,29
		c0,9.9,5.8,14.4,15.3,14.4c2.9,0,5.7-0.8,7.8-1.4v-7.8C453.3,342.1,451.3,342.9,448.5,342.9"/>
</g>
</svg>
