<svg xmlns="http://www.w3.org/2000/svg" viewBox="0 0 283.46 73.68"><title>sunshower_logo</title><path d="M43.65,68.46v-6.6c0-2.06-1-3.18-2.94-3.18s-3,1.17-3,3.18v6.6H36.58V52.73H37.7v6.34a4,4,0,0,1,3.14-1.39,3.67,3.67,0,0,1,3.93,4v6.8Z" fill="#EBECEC"/><path d="M50.53,63.38c0,2.7,1.22,4.2,3.47,4.2a3.69,3.69,0,0,0,2.94-1.28l.84.66a4.84,4.84,0,0,1-3.84,1.64c-2.94,0-4.53-1.9-4.53-5.46s1.59-5.46,4.26-5.46,4.27,2,4.27,5.19v.51Zm5.9-2.91a3,3,0,0,0-5.52,0,4.92,4.92,0,0,0-.38,2h6.28A4.92,4.92,0,0,0,56.43,60.47Z" fill="#EBECEC"/><path d="M68.94,68.46V67.4a4,4,0,0,1-3.25,1.2,3.94,3.94,0,0,1-3.14-1,3,3,0,0,1-.77-2.07c0-1.95,1.39-3.07,3.71-3.07h3.45v-1.2c0-1.7-.84-2.6-3-2.6A3.05,3.05,0,0,0,63,60l-.82-.7a4.06,4.06,0,0,1,3.76-1.64c2.81,0,4.13,1.26,4.13,3.49v7.29Zm0-5.08H65.62c-1.83,0-2.72.73-2.72,2.15s.86,2.07,2.79,2.07a3.5,3.5,0,0,0,2.65-.81,2.73,2.73,0,0,0,.6-2Z" fill="#EBECEC"/><path d="M77.88,68.46c-1.72,0-2.56-1.1-2.56-2.76v-13h1.12v13c0,1.19.38,1.79,1.64,1.79h.77v1Z" fill="#EBECEC"/><path d="M85.63,68.46a2.48,2.48,0,0,1-2.56-2.78v-7H81.61v-.84h1.46v-3.4h1.12v3.4H86.6v.84H84.19V65.7c0,1.11.51,1.77,1.64,1.77h.77v1Z" fill="#EBECEC"/><path d="M98.16,68.46v-6.6c0-2.06-1-3.18-2.94-3.18s-3,1.17-3,3.18v6.6H91.09V52.73h1.12v6.34a4,4,0,0,1,3.14-1.39,3.67,3.67,0,0,1,3.93,4v6.8Z" fill="#EBECEC"/><path d="M120,68.46l-1.52-1.85a6.86,6.86,0,0,1-4.84,2c-2.89,0-4.88-1.81-4.88-4.49,0-2.49,1.74-3.64,3.6-4.88a5.71,5.71,0,0,1-1.75-3.49,3.21,3.21,0,0,1,6.41,0,3.44,3.44,0,0,1-1.81,2.83l-1.17.79,4.51,5.46a6.16,6.16,0,0,0,.92-3.91h1.18a7.26,7.26,0,0,1-1.38,4.79l2.26,2.74Zm-7-8.44c-1.48,1-3.09,2-3.09,4a3.42,3.42,0,0,0,3.67,3.49,6,6,0,0,0,4.2-1.75Zm.78-6.36a2,2,0,0,0-2,2c0,.8.33,1.42,1.54,2.9l.91-.62c.82-.55,1.59-1.17,1.59-2.21A2,2,0,0,0,113.84,53.66Z" fill="#EBECEC"/><path d="M141.05,68.46H139.9l-3-8.88-3,8.88h-1.15l-3.4-10.65h1.23l2.72,9.33,3.05-9.33h1.11l3.05,9.33,2.72-9.33h1.23Z" fill="#EBECEC"/><path d="M148.33,63.38c0,2.7,1.22,4.2,3.47,4.2a3.69,3.69,0,0,0,2.94-1.28l.84.66a4.85,4.85,0,0,1-3.85,1.64c-2.93,0-4.52-1.9-4.52-5.46s1.59-5.46,4.26-5.46,4.27,2,4.27,5.19v.51Zm5.9-2.91a3,3,0,0,0-5.52,0,4.92,4.92,0,0,0-.38,2h6.28A4.92,4.92,0,0,0,154.23,60.47Z" fill="#EBECEC"/><path d="M163,68.46c-1.72,0-2.56-1.1-2.56-2.76v-13h1.12v13c0,1.19.38,1.79,1.64,1.79H164v1Z" fill="#EBECEC"/><path d="M170.44,68.46c-1.72,0-2.56-1.1-2.56-2.76v-13H169v13c0,1.19.37,1.79,1.63,1.79h.78v1Z" fill="#EBECEC"/><path d="M182.26,67.67a3.73,3.73,0,0,1-2.61.93,3.55,3.55,0,0,1-3.16-1.5v1.36h-1.12V52.73h1.12v6.45a3.55,3.55,0,0,1,3.16-1.5,3.73,3.73,0,0,1,2.61.93,6.4,6.4,0,0,1,1.37,4.53A6.4,6.4,0,0,1,182.26,67.67Zm-2.76-9c-2.61,0-3,2.25-3,4.46s.4,4.46,3,4.46,3-2.25,3-4.46S182.11,58.68,179.5,58.68Z" fill="#EBECEC"/><path d="M188.9,63.38c0,2.7,1.22,4.2,3.48,4.2a3.68,3.68,0,0,0,2.93-1.28l.84.66a4.83,4.83,0,0,1-3.84,1.64c-2.94,0-4.53-1.9-4.53-5.46s1.59-5.46,4.26-5.46,4.27,2,4.27,5.19v.51Zm5.91-2.91a3,3,0,0,0-5.53,0,5.09,5.09,0,0,0-.38,2h6.28A4.93,4.93,0,0,0,194.81,60.47Z" fill="#EBECEC"/><path d="M201.63,54.26a.83.83,0,1,1,.82-.84A.83.83,0,0,1,201.63,54.26Zm-.58,14.2V57.81h1.13V68.46Z" fill="#EBECEC"/><path d="M214.64,68.46v-6.6c0-2.06-1-3.18-2.94-3.18s-3,1.17-3,3.18v6.6h-1.13V57.81h1.13v1.26a4,4,0,0,1,3.13-1.39,3.88,3.88,0,0,1,2.83,1,4,4,0,0,1,1.11,3v6.8Z" fill="#EBECEC"/><path d="M224.31,73.68a4.58,4.58,0,0,1-3.51-1.41l.75-.75a3.53,3.53,0,0,0,2.76,1.17c2.23,0,3.23-1.6,3.23-3.69V67.1a3.55,3.55,0,0,1-3.16,1.5,3.73,3.73,0,0,1-2.61-.93,6.4,6.4,0,0,1-1.37-4.53,6.4,6.4,0,0,1,1.37-4.53,3.73,3.73,0,0,1,2.61-.93,3.55,3.55,0,0,1,3.16,1.5V57.81h1.12V69.06C228.66,71.73,227.07,73.68,224.31,73.68Zm.22-15c-2.6,0-3,2.25-3,4.46s.4,4.46,3,4.46,3-2.25,3-4.46S227.14,58.68,224.53,58.68Z" fill="#EBECEC"/><path d="M251.63,24.58a2.52,2.52,0,0,0-2.15-1.12,2.44,2.44,0,0,0-2.48,1.7,10.35,10.35,0,0,1-13.09,6.56l-.83-.31c-.29-.12-.57-.26-.85-.41,0,0-.54-.31-.8-.49s-.66-.48-.74-.55a10.32,10.32,0,0,1-3.88-8.07,10.08,10.08,0,0,1,.16-1.75,9.84,9.84,0,0,1,2.87-5.62,10,10,0,0,1,7.34-3,9.78,9.78,0,0,1,7.57,3.34l-8.6,4.26h0l-.06,0h0a2.92,2.92,0,0,0,1.19,5.58,2.88,2.88,0,0,0,1.1-.22h0l.16-.08,11-5.47a2.62,2.62,0,0,0,.65-.32h0a2.9,2.9,0,0,0,1.27-2.41,2.59,2.59,0,0,0-.09-.68h0a0,0,0,0,1,0,0,3,3,0,0,0-.27-.67,14.11,14.11,0,0,0-5.37-6.14,15.65,15.65,0,0,0-24.2,13.1,15.09,15.09,0,0,0,4.59,11.07A15.65,15.65,0,0,0,251.94,27,2.47,2.47,0,0,0,251.63,24.58Z" fill="#EBECEC"/><path d="M278.82,7.71h.74a2.31,2.31,0,0,1,.66.07.67.67,0,0,1,.28.21.64.64,0,0,1,.1.33.57.57,0,0,1-.21.45,1.32,1.32,0,0,1-.78.17h-.79Zm0,3.51V9.5h.38a.82.82,0,0,1,.53.14,3.19,3.19,0,0,1,.68.94l.36.64h.8l-.49-.79a5,5,0,0,0-.6-.81,1.16,1.16,0,0,0-.35-.21A1.26,1.26,0,0,0,281,9a1.06,1.06,0,0,0,.32-.78,1,1,0,0,0-.19-.59.91.91,0,0,0-.51-.39,3.19,3.19,0,0,0-1-.12h-1.4v4.06Zm2.42-4.82a2.93,2.93,0,0,1,1.18,1.16,3.18,3.18,0,0,1,0,3.14,2.9,2.9,0,0,1-1.17,1.16,3.13,3.13,0,0,1-3.13,0A2.9,2.9,0,0,1,277,10.7a3.18,3.18,0,0,1,0-3.14,2.93,2.93,0,0,1,1.18-1.16,3.12,3.12,0,0,1,3.09,0m-3.4-.55a3.52,3.52,0,0,0-1.41,1.4,3.78,3.78,0,0,0-.51,1.89,3.83,3.83,0,0,0,.5,1.87,3.49,3.49,0,0,0,1.4,1.4,3.77,3.77,0,0,0,3.75,0A3.49,3.49,0,0,0,283,11a3.81,3.81,0,0,0,.49-1.87,3.77,3.77,0,0,0-.5-1.89,3.52,3.52,0,0,0-1.41-1.4,3.76,3.76,0,0,0-3.71,0" fill="#EBECEC"/><path d="M162.68,10.56a15.26,15.26,0,0,0-11-4.63h0a2.71,2.71,0,0,0,0,5.42h0a10.09,10.09,0,0,1,7.23,3.06A10.18,10.18,0,0,1,162,21.85a10.46,10.46,0,0,1-10.48,10.48,10,10,0,0,1-7.4-3.08,10.1,10.1,0,0,1-3.08-7.4,10.1,10.1,0,0,1,2.85-7.18h0a2.67,2.67,0,0,0,.77-1.88A2.71,2.71,0,0,0,140,10.93h0a15.19,15.19,0,0,0-4.32,10.84A15.26,15.26,0,0,0,140.28,33a15.84,15.84,0,0,0,22.4,0,15.26,15.26,0,0,0,4.65-11.2A15.27,15.27,0,0,0,162.68,10.56Z" fill="#EBECEC"/><path d="M106,2.56a2.57,2.57,0,0,1,5.13,0v6a12,12,0,0,1,7.43-2.45,12.16,12.16,0,0,1,8.9,3.68,12.14,12.14,0,0,1,3.68,8.88V34.55a2.48,2.48,0,0,1-.74,1.8,2.44,2.44,0,0,1-1.78.75h-.08A2.54,2.54,0,0,1,126,34.55V18.69a7.45,7.45,0,1,0-14.89,0V34.54a2.54,2.54,0,0,1-2.55,2.55h-.06a2.39,2.39,0,0,1-1.77-.74,2.46,2.46,0,0,1-.75-1.81Z" fill="#EBECEC"/><path d="M2.56,36.86a2.56,2.56,0,1,1,0-5.11H10a3.69,3.69,0,0,0,3.71-3.7,3.21,3.21,0,0,0-2.05-3q-.46-.23-4.78-1.44a11.11,11.11,0,0,1-4.53-2.32A7.7,7.7,0,0,1,.3,15.5,8.5,8.5,0,0,1,2.87,9.28,8.54,8.54,0,0,1,9.12,6.69H12.8a2.56,2.56,0,0,1,0,5.11h-4a3.56,3.56,0,0,0-2.62,1.08A3.61,3.61,0,0,0,5.14,15.5a3.46,3.46,0,0,0,2.05,3.24A39.09,39.09,0,0,0,12,20.17a10.85,10.85,0,0,1,4.53,2.27,7.37,7.37,0,0,1,2,5.61A8.52,8.52,0,0,1,16,34.29a8.52,8.52,0,0,1-6.24,2.57Z" fill="#EBECEC"/><path d="M85.57,36.86a2.56,2.56,0,1,1,0-5.11H93a3.69,3.69,0,0,0,3.71-3.7,3.22,3.22,0,0,0-2-3q-.47-.23-4.78-1.44a11,11,0,0,1-4.53-2.32,7.7,7.7,0,0,1-2-5.75,8.81,8.81,0,0,1,8.82-8.81h3.68a2.56,2.56,0,0,1,0,5.11h-4a3.56,3.56,0,0,0-2.62,1.08,3.61,3.61,0,0,0-1.08,2.62,3.47,3.47,0,0,0,2,3.24A40.22,40.22,0,0,0,95,20.17a10.85,10.85,0,0,1,4.53,2.27,7.37,7.37,0,0,1,2,5.61,8.77,8.77,0,0,1-8.81,8.81Z" fill="#EBECEC"/><path d="M48.11,24.87a12.08,12.08,0,0,1-3.69,8.87,12.08,12.08,0,0,1-8.87,3.69,12.13,12.13,0,0,1-8.9-3.69A12.11,12.11,0,0,1,23,24.87V9.05a2.56,2.56,0,1,1,5.12,0V24.87a7.47,7.47,0,0,0,12.73,5.27A7.24,7.24,0,0,0,43,24.87V9.05a2.57,2.57,0,0,1,5.13,0Z" fill="#EBECEC"/><path d="M53.57,18.7a12.11,12.11,0,0,1,3.69-8.88A12.57,12.57,0,0,1,75,9.82a12.14,12.14,0,0,1,3.68,8.88V34.51a2.57,2.57,0,1,1-5.13,0V18.7a7.44,7.44,0,1,0-14.88,0V34.51a2.56,2.56,0,1,1-5.12,0Z" fill="#EBECEC"/><path d="M214.44,6.49a2.56,2.56,0,0,0-2.56,2.56V24.87a7.45,7.45,0,1,1-14.89,0V9.05a2.56,2.56,0,0,0-2.56-2.56h0a2.57,2.57,0,0,0-2.57,2.56V24.87a7.45,7.45,0,1,1-14.89,0V9.05a2.56,2.56,0,0,0-5.12,0V24.87a12.58,12.58,0,0,0,12.58,12.56,12.08,12.08,0,0,0,8.87-3.69,12.42,12.42,0,0,0,1.13-1.29,12.32,12.32,0,0,0,1.12,1.29A12.58,12.58,0,0,0,217,24.87V9.05A2.57,2.57,0,0,0,214.44,6.49Z" fill="#EBECEC"/><path d="M267.58,11.83a6,6,0,0,0-4.45,1.84,6.18,6.18,0,0,0-1.84,4.45V34.48a2.58,2.58,0,0,1-5.15,0V18.12A11.31,11.31,0,0,1,259.49,10a11,11,0,0,1,8.09-3.34h1.54a2.57,2.57,0,0,1,0,5.14Z" fill="#EBECEC"/></svg>